<mxfile host="Electron" modified="2024-04-11T09:43:19.086Z" agent="Mozilla/5.0 (Windows NT 10.0; Win64; x64) AppleWebKit/537.36 (KHTML, like Gecko) draw.io/23.1.5 Chrome/120.0.6099.109 Electron/28.1.0 Safari/537.36" etag="j748hio4K3KsJU9C95F9" version="23.1.5" type="device">
  <diagram name="Page-1" id="H8ntc2B-IYQj8NM_hgJr">
    <mxGraphModel dx="656" dy="1562" grid="1" gridSize="10" guides="1" tooltips="1" connect="1" arrows="1" fold="1" page="1" pageScale="1" pageWidth="827" pageHeight="1169" math="0" shadow="0">
      <root>
        <mxCell id="0" />
        <mxCell id="1" parent="0" />
        <mxCell id="1_1kWUtyBtne64YVCPKi-47" value="" style="edgeStyle=orthogonalEdgeStyle;rounded=0;orthogonalLoop=1;jettySize=auto;html=1;endArrow=baseDash;endFill=0;" parent="1" source="1_1kWUtyBtne64YVCPKi-23" target="1_1kWUtyBtne64YVCPKi-46" edge="1">
          <mxGeometry relative="1" as="geometry" />
        </mxCell>
        <mxCell id="UUWKYqGzad0E9Pj7y7_Q-2" style="edgeStyle=orthogonalEdgeStyle;rounded=0;orthogonalLoop=1;jettySize=auto;html=1;endArrow=baseDash;endFill=0;" parent="1" source="1_1kWUtyBtne64YVCPKi-23" target="igtIyiMLG_RaECPwUn3D-18" edge="1">
          <mxGeometry relative="1" as="geometry" />
        </mxCell>
        <mxCell id="1twqKFGYZjAHJptiLmNI-26" style="edgeStyle=orthogonalEdgeStyle;rounded=0;orthogonalLoop=1;jettySize=auto;html=1;endArrow=baseDash;endFill=0;" parent="1" source="1_1kWUtyBtne64YVCPKi-23" target="1twqKFGYZjAHJptiLmNI-24" edge="1">
          <mxGeometry relative="1" as="geometry">
            <Array as="points">
              <mxPoint x="240" y="-50" />
              <mxPoint x="990" y="-50" />
              <mxPoint x="990" y="40" />
              <mxPoint x="1360" y="40" />
            </Array>
          </mxGeometry>
        </mxCell>
        <mxCell id="1_1kWUtyBtne64YVCPKi-23" value="USER" style="swimlane;fontStyle=0;childLayout=stackLayout;horizontal=1;startSize=30;horizontalStack=0;resizeParent=1;resizeParentMax=0;resizeLast=0;collapsible=1;marginBottom=0;whiteSpace=wrap;html=1;" parent="1" vertex="1">
          <mxGeometry x="170" y="-30" width="140" height="240" as="geometry" />
        </mxCell>
        <mxCell id="1_1kWUtyBtne64YVCPKi-24" value="Nom&lt;br&gt;" style="text;strokeColor=none;fillColor=none;align=left;verticalAlign=middle;spacingLeft=4;spacingRight=4;overflow=hidden;points=[[0,0.5],[1,0.5]];portConstraint=eastwest;rotatable=0;whiteSpace=wrap;html=1;" parent="1_1kWUtyBtne64YVCPKi-23" vertex="1">
          <mxGeometry y="30" width="140" height="30" as="geometry" />
        </mxCell>
        <mxCell id="1_1kWUtyBtne64YVCPKi-25" value="Prénom" style="text;strokeColor=none;fillColor=none;align=left;verticalAlign=middle;spacingLeft=4;spacingRight=4;overflow=hidden;points=[[0,0.5],[1,0.5]];portConstraint=eastwest;rotatable=0;whiteSpace=wrap;html=1;" parent="1_1kWUtyBtne64YVCPKi-23" vertex="1">
          <mxGeometry y="60" width="140" height="30" as="geometry" />
        </mxCell>
        <mxCell id="1_1kWUtyBtne64YVCPKi-31" value="Email" style="text;strokeColor=none;fillColor=none;align=left;verticalAlign=middle;spacingLeft=4;spacingRight=4;overflow=hidden;points=[[0,0.5],[1,0.5]];portConstraint=eastwest;rotatable=0;whiteSpace=wrap;html=1;" parent="1_1kWUtyBtne64YVCPKi-23" vertex="1">
          <mxGeometry y="90" width="140" height="30" as="geometry" />
        </mxCell>
        <mxCell id="1_1kWUtyBtne64YVCPKi-32" value="Date de naissance" style="text;strokeColor=none;fillColor=none;align=left;verticalAlign=middle;spacingLeft=4;spacingRight=4;overflow=hidden;points=[[0,0.5],[1,0.5]];portConstraint=eastwest;rotatable=0;whiteSpace=wrap;html=1;" parent="1_1kWUtyBtne64YVCPKi-23" vertex="1">
          <mxGeometry y="120" width="140" height="30" as="geometry" />
        </mxCell>
        <mxCell id="1twqKFGYZjAHJptiLmNI-3" value="Ville de résidence" style="text;strokeColor=none;fillColor=none;align=left;verticalAlign=middle;spacingLeft=4;spacingRight=4;overflow=hidden;points=[[0,0.5],[1,0.5]];portConstraint=eastwest;rotatable=0;whiteSpace=wrap;html=1;" parent="1_1kWUtyBtne64YVCPKi-23" vertex="1">
          <mxGeometry y="150" width="140" height="30" as="geometry" />
        </mxCell>
        <mxCell id="1twqKFGYZjAHJptiLmNI-6" value="Date d&#39;inscription" style="text;strokeColor=none;fillColor=none;align=left;verticalAlign=middle;spacingLeft=4;spacingRight=4;overflow=hidden;points=[[0,0.5],[1,0.5]];portConstraint=eastwest;rotatable=0;whiteSpace=wrap;html=1;" parent="1_1kWUtyBtne64YVCPKi-23" vertex="1">
          <mxGeometry y="180" width="140" height="30" as="geometry" />
        </mxCell>
        <mxCell id="1twqKFGYZjAHJptiLmNI-4" value="Hash" style="text;strokeColor=none;fillColor=none;align=left;verticalAlign=middle;spacingLeft=4;spacingRight=4;overflow=hidden;points=[[0,0.5],[1,0.5]];portConstraint=eastwest;rotatable=0;whiteSpace=wrap;html=1;" parent="1_1kWUtyBtne64YVCPKi-23" vertex="1">
          <mxGeometry y="210" width="140" height="30" as="geometry" />
        </mxCell>
        <mxCell id="1twqKFGYZjAHJptiLmNI-23" style="edgeStyle=orthogonalEdgeStyle;rounded=0;orthogonalLoop=1;jettySize=auto;html=1;endArrow=baseDash;endFill=0;" parent="1" source="1_1kWUtyBtne64YVCPKi-27" target="1twqKFGYZjAHJptiLmNI-7" edge="1">
          <mxGeometry relative="1" as="geometry" />
        </mxCell>
        <mxCell id="1_1kWUtyBtne64YVCPKi-27" value="TABLE de jeu" style="swimlane;fontStyle=0;childLayout=stackLayout;horizontal=1;startSize=30;horizontalStack=0;resizeParent=1;resizeParentMax=0;resizeLast=0;collapsible=1;marginBottom=0;whiteSpace=wrap;html=1;" parent="1" vertex="1">
          <mxGeometry x="530" y="170" width="140" height="210" as="geometry" />
        </mxCell>
        <mxCell id="1_1kWUtyBtne64YVCPKi-29" value="Nom" style="text;strokeColor=none;fillColor=none;align=left;verticalAlign=middle;spacingLeft=4;spacingRight=4;overflow=hidden;points=[[0,0.5],[1,0.5]];portConstraint=eastwest;rotatable=0;whiteSpace=wrap;html=1;" parent="1_1kWUtyBtne64YVCPKi-27" vertex="1">
          <mxGeometry y="30" width="140" height="30" as="geometry" />
        </mxCell>
        <mxCell id="1_1kWUtyBtne64YVCPKi-33" value="Système utilisé" style="text;strokeColor=none;fillColor=none;align=left;verticalAlign=middle;spacingLeft=4;spacingRight=4;overflow=hidden;points=[[0,0.5],[1,0.5]];portConstraint=eastwest;rotatable=0;whiteSpace=wrap;html=1;" parent="1_1kWUtyBtne64YVCPKi-27" vertex="1">
          <mxGeometry y="60" width="140" height="30" as="geometry" />
        </mxCell>
        <mxCell id="1_1kWUtyBtne64YVCPKi-34" value="Img Profil" style="text;strokeColor=none;fillColor=none;align=left;verticalAlign=middle;spacingLeft=4;spacingRight=4;overflow=hidden;points=[[0,0.5],[1,0.5]];portConstraint=eastwest;rotatable=0;whiteSpace=wrap;html=1;" parent="1_1kWUtyBtne64YVCPKi-27" vertex="1">
          <mxGeometry y="90" width="140" height="30" as="geometry" />
        </mxCell>
        <mxCell id="1_1kWUtyBtne64YVCPKi-35" value="Nom Joueurs" style="text;strokeColor=none;fillColor=none;align=left;verticalAlign=middle;spacingLeft=4;spacingRight=4;overflow=hidden;points=[[0,0.5],[1,0.5]];portConstraint=eastwest;rotatable=0;whiteSpace=wrap;html=1;" parent="1_1kWUtyBtne64YVCPKi-27" vertex="1">
          <mxGeometry y="120" width="140" height="30" as="geometry" />
        </mxCell>
        <mxCell id="1_1kWUtyBtne64YVCPKi-30" value="Nom Personnages" style="text;strokeColor=none;fillColor=none;align=left;verticalAlign=middle;spacingLeft=4;spacingRight=4;overflow=hidden;points=[[0,0.5],[1,0.5]];portConstraint=eastwest;rotatable=0;whiteSpace=wrap;html=1;" parent="1_1kWUtyBtne64YVCPKi-27" vertex="1">
          <mxGeometry y="150" width="140" height="30" as="geometry" />
        </mxCell>
        <mxCell id="1_1kWUtyBtne64YVCPKi-36" value="Chat" style="text;strokeColor=none;fillColor=none;align=left;verticalAlign=middle;spacingLeft=4;spacingRight=4;overflow=hidden;points=[[0,0.5],[1,0.5]];portConstraint=eastwest;rotatable=0;whiteSpace=wrap;html=1;" parent="1_1kWUtyBtne64YVCPKi-27" vertex="1">
          <mxGeometry y="180" width="140" height="30" as="geometry" />
        </mxCell>
        <mxCell id="1_1kWUtyBtne64YVCPKi-50" value="" style="edgeStyle=orthogonalEdgeStyle;rounded=0;orthogonalLoop=1;jettySize=auto;html=1;endArrow=baseDash;endFill=0;" parent="1" source="1_1kWUtyBtne64YVCPKi-41" target="1_1kWUtyBtne64YVCPKi-29" edge="1">
          <mxGeometry relative="1" as="geometry" />
        </mxCell>
        <mxCell id="1_1kWUtyBtne64YVCPKi-41" value="Créent" style="ellipse;whiteSpace=wrap;html=1;" parent="1" vertex="1">
          <mxGeometry x="450" width="120" height="80" as="geometry" />
        </mxCell>
        <mxCell id="1_1kWUtyBtne64YVCPKi-48" value="" style="edgeStyle=orthogonalEdgeStyle;rounded=0;orthogonalLoop=1;jettySize=auto;html=1;endArrow=baseDash;endFill=0;" parent="1" source="1_1kWUtyBtne64YVCPKi-46" target="1_1kWUtyBtne64YVCPKi-30" edge="1">
          <mxGeometry relative="1" as="geometry" />
        </mxCell>
        <mxCell id="1_1kWUtyBtne64YVCPKi-46" value="Rejoignent" style="ellipse;whiteSpace=wrap;html=1;" parent="1" vertex="1">
          <mxGeometry x="374" y="140" width="120" height="80" as="geometry" />
        </mxCell>
        <mxCell id="34b2mnpTwD89V751DP28-12" value="1.1" style="text;html=1;align=center;verticalAlign=middle;resizable=0;points=[];autosize=1;strokeColor=none;fillColor=none;" parent="1" vertex="1">
          <mxGeometry x="490" y="310" width="40" height="30" as="geometry" />
        </mxCell>
        <mxCell id="34b2mnpTwD89V751DP28-13" value="0.n" style="text;html=1;align=center;verticalAlign=middle;resizable=0;points=[];autosize=1;strokeColor=none;fillColor=none;" parent="1" vertex="1">
          <mxGeometry x="510" y="80" width="40" height="30" as="geometry" />
        </mxCell>
        <mxCell id="34b2mnpTwD89V751DP28-14" value="1.1" style="text;html=1;align=center;verticalAlign=middle;resizable=0;points=[];autosize=1;strokeColor=none;fillColor=none;" parent="1" vertex="1">
          <mxGeometry x="310" y="10" width="40" height="30" as="geometry" />
        </mxCell>
        <mxCell id="34b2mnpTwD89V751DP28-17" value="0.n" style="text;html=1;align=center;verticalAlign=middle;resizable=0;points=[];autosize=1;strokeColor=none;fillColor=none;" parent="1" vertex="1">
          <mxGeometry x="310" y="60" width="40" height="30" as="geometry" />
        </mxCell>
        <mxCell id="UUWKYqGzad0E9Pj7y7_Q-9" style="edgeStyle=orthogonalEdgeStyle;rounded=0;orthogonalLoop=1;jettySize=auto;html=1;entryX=0.5;entryY=1;entryDx=0;entryDy=0;endArrow=baseDash;endFill=0;" parent="1" source="igtIyiMLG_RaECPwUn3D-11" target="UUWKYqGzad0E9Pj7y7_Q-6" edge="1">
          <mxGeometry relative="1" as="geometry">
            <Array as="points">
              <mxPoint x="80" y="800" />
            </Array>
          </mxGeometry>
        </mxCell>
        <mxCell id="igtIyiMLG_RaECPwUn3D-11" value="Profil_joueur" style="swimlane;fontStyle=0;childLayout=stackLayout;horizontal=1;startSize=30;horizontalStack=0;resizeParent=1;resizeParentMax=0;resizeLast=0;collapsible=1;marginBottom=0;whiteSpace=wrap;html=1;" parent="1" vertex="1">
          <mxGeometry x="197" y="600" width="140" height="210" as="geometry" />
        </mxCell>
        <mxCell id="igtIyiMLG_RaECPwUn3D-12" value="pseudo" style="text;strokeColor=none;fillColor=none;align=left;verticalAlign=middle;spacingLeft=4;spacingRight=4;overflow=hidden;points=[[0,0.5],[1,0.5]];portConstraint=eastwest;rotatable=0;whiteSpace=wrap;html=1;" parent="igtIyiMLG_RaECPwUn3D-11" vertex="1">
          <mxGeometry y="30" width="140" height="30" as="geometry" />
        </mxCell>
        <mxCell id="igtIyiMLG_RaECPwUn3D-28" value="img_profil" style="text;strokeColor=none;fillColor=none;align=left;verticalAlign=middle;spacingLeft=4;spacingRight=4;overflow=hidden;points=[[0,0.5],[1,0.5]];portConstraint=eastwest;rotatable=0;whiteSpace=wrap;html=1;" parent="igtIyiMLG_RaECPwUn3D-11" vertex="1">
          <mxGeometry y="60" width="140" height="30" as="geometry" />
        </mxCell>
        <mxCell id="igtIyiMLG_RaECPwUn3D-13" value="date_creation" style="text;strokeColor=none;fillColor=none;align=left;verticalAlign=middle;spacingLeft=4;spacingRight=4;overflow=hidden;points=[[0,0.5],[1,0.5]];portConstraint=eastwest;rotatable=0;whiteSpace=wrap;html=1;" parent="igtIyiMLG_RaECPwUn3D-11" vertex="1">
          <mxGeometry y="90" width="140" height="30" as="geometry" />
        </mxCell>
        <mxCell id="igtIyiMLG_RaECPwUn3D-14" value="jeux_maitrises" style="text;strokeColor=none;fillColor=none;align=left;verticalAlign=middle;spacingLeft=4;spacingRight=4;overflow=hidden;points=[[0,0.5],[1,0.5]];portConstraint=eastwest;rotatable=0;whiteSpace=wrap;html=1;" parent="igtIyiMLG_RaECPwUn3D-11" vertex="1">
          <mxGeometry y="120" width="140" height="30" as="geometry" />
        </mxCell>
        <mxCell id="igtIyiMLG_RaECPwUn3D-15" value="description" style="text;strokeColor=none;fillColor=none;align=left;verticalAlign=middle;spacingLeft=4;spacingRight=4;overflow=hidden;points=[[0,0.5],[1,0.5]];portConstraint=eastwest;rotatable=0;whiteSpace=wrap;html=1;" parent="igtIyiMLG_RaECPwUn3D-11" vertex="1">
          <mxGeometry y="150" width="140" height="30" as="geometry" />
        </mxCell>
        <mxCell id="1twqKFGYZjAHJptiLmNI-1" value="MJ ou pas MJ" style="text;strokeColor=none;fillColor=none;align=left;verticalAlign=middle;spacingLeft=4;spacingRight=4;overflow=hidden;points=[[0,0.5],[1,0.5]];portConstraint=eastwest;rotatable=0;whiteSpace=wrap;html=1;" parent="igtIyiMLG_RaECPwUn3D-11" vertex="1">
          <mxGeometry y="180" width="140" height="30" as="geometry" />
        </mxCell>
        <mxCell id="UUWKYqGzad0E9Pj7y7_Q-3" style="edgeStyle=orthogonalEdgeStyle;rounded=0;orthogonalLoop=1;jettySize=auto;html=1;endArrow=baseDash;endFill=0;" parent="1" source="igtIyiMLG_RaECPwUn3D-18" target="igtIyiMLG_RaECPwUn3D-11" edge="1">
          <mxGeometry relative="1" as="geometry" />
        </mxCell>
        <mxCell id="igtIyiMLG_RaECPwUn3D-18" value="Créent" style="ellipse;whiteSpace=wrap;html=1;" parent="1" vertex="1">
          <mxGeometry x="207" y="265" width="120" height="80" as="geometry" />
        </mxCell>
        <mxCell id="igtIyiMLG_RaECPwUn3D-19" value="0.1" style="text;html=1;align=center;verticalAlign=middle;resizable=0;points=[];autosize=1;strokeColor=none;fillColor=none;" parent="1" vertex="1">
          <mxGeometry x="230" y="570" width="40" height="30" as="geometry" />
        </mxCell>
        <mxCell id="igtIyiMLG_RaECPwUn3D-23" style="edgeStyle=orthogonalEdgeStyle;rounded=0;orthogonalLoop=1;jettySize=auto;html=1;endArrow=baseDash;endFill=0;" parent="1" source="igtIyiMLG_RaECPwUn3D-21" target="1_1kWUtyBtne64YVCPKi-23" edge="1">
          <mxGeometry relative="1" as="geometry">
            <Array as="points">
              <mxPoint x="360" y="550" />
              <mxPoint x="360" y="210" />
              <mxPoint x="311" y="210" />
              <mxPoint x="311" y="90" />
            </Array>
            <mxPoint x="337" y="175" as="targetPoint" />
          </mxGeometry>
        </mxCell>
        <mxCell id="UUWKYqGzad0E9Pj7y7_Q-5" style="edgeStyle=orthogonalEdgeStyle;rounded=0;orthogonalLoop=1;jettySize=auto;html=1;endArrow=baseDash;endFill=0;" parent="1" source="igtIyiMLG_RaECPwUn3D-21" target="igtIyiMLG_RaECPwUn3D-15" edge="1">
          <mxGeometry relative="1" as="geometry" />
        </mxCell>
        <mxCell id="igtIyiMLG_RaECPwUn3D-21" value="Recherchent" style="ellipse;whiteSpace=wrap;html=1;" parent="1" vertex="1">
          <mxGeometry x="450" y="510" width="120" height="80" as="geometry" />
        </mxCell>
        <mxCell id="igtIyiMLG_RaECPwUn3D-29" value="0.n" style="text;html=1;align=center;verticalAlign=middle;resizable=0;points=[];autosize=1;strokeColor=none;fillColor=none;" parent="1" vertex="1">
          <mxGeometry x="337" y="730" width="40" height="30" as="geometry" />
        </mxCell>
        <mxCell id="igtIyiMLG_RaECPwUn3D-30" value="1.n" style="text;html=1;align=center;verticalAlign=middle;resizable=0;points=[];autosize=1;strokeColor=none;fillColor=none;" parent="1" vertex="1">
          <mxGeometry x="410" y="520" width="40" height="30" as="geometry" />
        </mxCell>
        <mxCell id="UUWKYqGzad0E9Pj7y7_Q-1" style="edgeStyle=orthogonalEdgeStyle;rounded=0;orthogonalLoop=1;jettySize=auto;html=1;endArrow=baseDash;endFill=0;" parent="1" source="1_1kWUtyBtne64YVCPKi-25" target="1_1kWUtyBtne64YVCPKi-41" edge="1">
          <mxGeometry relative="1" as="geometry" />
        </mxCell>
        <mxCell id="UUWKYqGzad0E9Pj7y7_Q-8" style="edgeStyle=orthogonalEdgeStyle;rounded=0;orthogonalLoop=1;jettySize=auto;html=1;entryX=0;entryY=0.5;entryDx=0;entryDy=0;endArrow=baseDash;endFill=0;" parent="1" source="UUWKYqGzad0E9Pj7y7_Q-6" target="1_1kWUtyBtne64YVCPKi-24" edge="1">
          <mxGeometry relative="1" as="geometry" />
        </mxCell>
        <mxCell id="UUWKYqGzad0E9Pj7y7_Q-6" value="Envoie message" style="ellipse;whiteSpace=wrap;html=1;" parent="1" vertex="1">
          <mxGeometry x="20" y="260" width="120" height="80" as="geometry" />
        </mxCell>
        <mxCell id="UUWKYqGzad0E9Pj7y7_Q-10" value="0.n" style="text;html=1;align=center;verticalAlign=middle;resizable=0;points=[];autosize=1;strokeColor=none;fillColor=none;" parent="1" vertex="1">
          <mxGeometry x="130" y="10" width="40" height="30" as="geometry" />
        </mxCell>
        <mxCell id="UUWKYqGzad0E9Pj7y7_Q-11" value="1.1" style="text;html=1;align=center;verticalAlign=middle;resizable=0;points=[];autosize=1;strokeColor=none;fillColor=none;" parent="1" vertex="1">
          <mxGeometry x="157" y="770" width="40" height="30" as="geometry" />
        </mxCell>
        <mxCell id="UUWKYqGzad0E9Pj7y7_Q-12" value="1.1" style="text;html=1;align=center;verticalAlign=middle;resizable=0;points=[];autosize=1;strokeColor=none;fillColor=none;" parent="1" vertex="1">
          <mxGeometry x="270" y="235" width="40" height="30" as="geometry" />
        </mxCell>
        <mxCell id="1twqKFGYZjAHJptiLmNI-7" value="Chat" style="swimlane;fontStyle=0;childLayout=stackLayout;horizontal=1;startSize=30;horizontalStack=0;resizeParent=1;resizeParentMax=0;resizeLast=0;collapsible=1;marginBottom=0;whiteSpace=wrap;html=1;" parent="1" vertex="1">
          <mxGeometry x="930" y="235" width="140" height="60" as="geometry" />
        </mxCell>
        <mxCell id="1twqKFGYZjAHJptiLmNI-21" value="Messages" style="text;strokeColor=none;fillColor=none;align=left;verticalAlign=middle;spacingLeft=4;spacingRight=4;overflow=hidden;points=[[0,0.5],[1,0.5]];portConstraint=eastwest;rotatable=0;whiteSpace=wrap;html=1;" parent="1twqKFGYZjAHJptiLmNI-7" vertex="1">
          <mxGeometry y="30" width="140" height="30" as="geometry" />
        </mxCell>
        <mxCell id="1twqKFGYZjAHJptiLmNI-29" style="edgeStyle=orthogonalEdgeStyle;rounded=0;orthogonalLoop=1;jettySize=auto;html=1;endArrow=baseDash;endFill=0;" parent="1" source="1twqKFGYZjAHJptiLmNI-24" target="1twqKFGYZjAHJptiLmNI-7" edge="1">
          <mxGeometry relative="1" as="geometry">
            <mxPoint x="980" y="310" as="sourcePoint" />
          </mxGeometry>
        </mxCell>
        <mxCell id="1twqKFGYZjAHJptiLmNI-24" value="message" style="swimlane;fontStyle=0;childLayout=stackLayout;horizontal=1;startSize=30;horizontalStack=0;resizeParent=1;resizeParentMax=0;resizeLast=0;collapsible=1;marginBottom=0;whiteSpace=wrap;html=1;" parent="1" vertex="1">
          <mxGeometry x="1290" y="235" width="140" height="90" as="geometry" />
        </mxCell>
        <mxCell id="1twqKFGYZjAHJptiLmNI-25" value="contenu" style="text;strokeColor=none;fillColor=none;align=left;verticalAlign=middle;spacingLeft=4;spacingRight=4;overflow=hidden;points=[[0,0.5],[1,0.5]];portConstraint=eastwest;rotatable=0;whiteSpace=wrap;html=1;" parent="1twqKFGYZjAHJptiLmNI-24" vertex="1">
          <mxGeometry y="30" width="140" height="30" as="geometry" />
        </mxCell>
        <mxCell id="1twqKFGYZjAHJptiLmNI-201" value="date_creation" style="text;strokeColor=none;fillColor=none;align=left;verticalAlign=middle;spacingLeft=4;spacingRight=4;overflow=hidden;points=[[0,0.5],[1,0.5]];portConstraint=eastwest;rotatable=0;whiteSpace=wrap;html=1;" parent="1twqKFGYZjAHJptiLmNI-24" vertex="1">
          <mxGeometry y="60" width="140" height="30" as="geometry" />
        </mxCell>
        <mxCell id="1twqKFGYZjAHJptiLmNI-33" style="edgeStyle=orthogonalEdgeStyle;rounded=0;orthogonalLoop=1;jettySize=auto;html=1;endArrow=classic;endFill=1;" parent="1" source="1twqKFGYZjAHJptiLmNI-34" target="1twqKFGYZjAHJptiLmNI-83" edge="1">
          <mxGeometry relative="1" as="geometry">
            <Array as="points">
              <mxPoint x="260" y="1040" />
              <mxPoint x="1010" y="1040" />
              <mxPoint x="1010" y="1195" />
              <mxPoint x="1260" y="1195" />
            </Array>
          </mxGeometry>
        </mxCell>
        <mxCell id="1twqKFGYZjAHJptiLmNI-34" value="USER" style="swimlane;fontStyle=0;childLayout=stackLayout;horizontal=1;startSize=30;horizontalStack=0;resizeParent=1;resizeParentMax=0;resizeLast=0;collapsible=1;marginBottom=0;whiteSpace=wrap;html=1;" parent="1" vertex="1">
          <mxGeometry x="190" y="1060" width="140" height="270" as="geometry" />
        </mxCell>
        <mxCell id="1twqKFGYZjAHJptiLmNI-87" value="&lt;u&gt;id-user&lt;/u&gt;" style="text;strokeColor=none;fillColor=none;align=left;verticalAlign=middle;spacingLeft=4;spacingRight=4;overflow=hidden;points=[[0,0.5],[1,0.5]];portConstraint=eastwest;rotatable=0;whiteSpace=wrap;html=1;" parent="1twqKFGYZjAHJptiLmNI-34" vertex="1">
          <mxGeometry y="30" width="140" height="30" as="geometry" />
        </mxCell>
        <mxCell id="1twqKFGYZjAHJptiLmNI-35" value="Nom&lt;br&gt;" style="text;strokeColor=none;fillColor=none;align=left;verticalAlign=middle;spacingLeft=4;spacingRight=4;overflow=hidden;points=[[0,0.5],[1,0.5]];portConstraint=eastwest;rotatable=0;whiteSpace=wrap;html=1;" parent="1twqKFGYZjAHJptiLmNI-34" vertex="1">
          <mxGeometry y="60" width="140" height="30" as="geometry" />
        </mxCell>
        <mxCell id="1twqKFGYZjAHJptiLmNI-36" value="Prénom" style="text;strokeColor=none;fillColor=none;align=left;verticalAlign=middle;spacingLeft=4;spacingRight=4;overflow=hidden;points=[[0,0.5],[1,0.5]];portConstraint=eastwest;rotatable=0;whiteSpace=wrap;html=1;" parent="1twqKFGYZjAHJptiLmNI-34" vertex="1">
          <mxGeometry y="90" width="140" height="30" as="geometry" />
        </mxCell>
        <mxCell id="1twqKFGYZjAHJptiLmNI-37" value="Email" style="text;strokeColor=none;fillColor=none;align=left;verticalAlign=middle;spacingLeft=4;spacingRight=4;overflow=hidden;points=[[0,0.5],[1,0.5]];portConstraint=eastwest;rotatable=0;whiteSpace=wrap;html=1;" parent="1twqKFGYZjAHJptiLmNI-34" vertex="1">
          <mxGeometry y="120" width="140" height="30" as="geometry" />
        </mxCell>
        <mxCell id="1twqKFGYZjAHJptiLmNI-38" value="Date de naissance" style="text;strokeColor=none;fillColor=none;align=left;verticalAlign=middle;spacingLeft=4;spacingRight=4;overflow=hidden;points=[[0,0.5],[1,0.5]];portConstraint=eastwest;rotatable=0;whiteSpace=wrap;html=1;" parent="1twqKFGYZjAHJptiLmNI-34" vertex="1">
          <mxGeometry y="150" width="140" height="30" as="geometry" />
        </mxCell>
        <mxCell id="1twqKFGYZjAHJptiLmNI-39" value="Ville de résidence" style="text;strokeColor=none;fillColor=none;align=left;verticalAlign=middle;spacingLeft=4;spacingRight=4;overflow=hidden;points=[[0,0.5],[1,0.5]];portConstraint=eastwest;rotatable=0;whiteSpace=wrap;html=1;" parent="1twqKFGYZjAHJptiLmNI-34" vertex="1">
          <mxGeometry y="180" width="140" height="30" as="geometry" />
        </mxCell>
        <mxCell id="1twqKFGYZjAHJptiLmNI-40" value="Date d&#39;inscription" style="text;strokeColor=none;fillColor=none;align=left;verticalAlign=middle;spacingLeft=4;spacingRight=4;overflow=hidden;points=[[0,0.5],[1,0.5]];portConstraint=eastwest;rotatable=0;whiteSpace=wrap;html=1;" parent="1twqKFGYZjAHJptiLmNI-34" vertex="1">
          <mxGeometry y="210" width="140" height="30" as="geometry" />
        </mxCell>
        <mxCell id="1twqKFGYZjAHJptiLmNI-41" value="Hash" style="text;strokeColor=none;fillColor=none;align=left;verticalAlign=middle;spacingLeft=4;spacingRight=4;overflow=hidden;points=[[0,0.5],[1,0.5]];portConstraint=eastwest;rotatable=0;whiteSpace=wrap;html=1;" parent="1twqKFGYZjAHJptiLmNI-34" vertex="1">
          <mxGeometry y="240" width="140" height="30" as="geometry" />
        </mxCell>
        <mxCell id="1twqKFGYZjAHJptiLmNI-42" style="edgeStyle=orthogonalEdgeStyle;rounded=0;orthogonalLoop=1;jettySize=auto;html=1;endArrow=classic;endFill=1;" parent="1" source="1twqKFGYZjAHJptiLmNI-43" target="1twqKFGYZjAHJptiLmNI-80" edge="1">
          <mxGeometry relative="1" as="geometry" />
        </mxCell>
        <mxCell id="1twqKFGYZjAHJptiLmNI-43" value="TABLE de jeu" style="swimlane;fontStyle=0;childLayout=stackLayout;horizontal=1;startSize=30;horizontalStack=0;resizeParent=1;resizeParentMax=0;resizeLast=0;collapsible=1;marginBottom=0;whiteSpace=wrap;html=1;" parent="1" vertex="1">
          <mxGeometry x="550" y="1260" width="140" height="240" as="geometry" />
        </mxCell>
        <mxCell id="1twqKFGYZjAHJptiLmNI-88" value="&lt;u&gt;id-table&lt;/u&gt;" style="text;strokeColor=none;fillColor=none;align=left;verticalAlign=middle;spacingLeft=4;spacingRight=4;overflow=hidden;points=[[0,0.5],[1,0.5]];portConstraint=eastwest;rotatable=0;whiteSpace=wrap;html=1;" parent="1twqKFGYZjAHJptiLmNI-43" vertex="1">
          <mxGeometry y="30" width="140" height="30" as="geometry" />
        </mxCell>
        <mxCell id="1twqKFGYZjAHJptiLmNI-101" value="#id-user (MJ)" style="text;strokeColor=none;fillColor=none;align=left;verticalAlign=middle;spacingLeft=4;spacingRight=4;overflow=hidden;points=[[0,0.5],[1,0.5]];portConstraint=eastwest;rotatable=0;whiteSpace=wrap;html=1;" parent="1twqKFGYZjAHJptiLmNI-43" vertex="1">
          <mxGeometry y="60" width="140" height="30" as="geometry" />
        </mxCell>
        <mxCell id="1twqKFGYZjAHJptiLmNI-127" value="#id-profil (Joueur)" style="text;strokeColor=none;fillColor=none;align=left;verticalAlign=middle;spacingLeft=4;spacingRight=4;overflow=hidden;points=[[0,0.5],[1,0.5]];portConstraint=eastwest;rotatable=0;whiteSpace=wrap;html=1;" parent="1twqKFGYZjAHJptiLmNI-43" vertex="1">
          <mxGeometry y="90" width="140" height="30" as="geometry" />
        </mxCell>
        <mxCell id="1twqKFGYZjAHJptiLmNI-44" value="Nom" style="text;strokeColor=none;fillColor=none;align=left;verticalAlign=middle;spacingLeft=4;spacingRight=4;overflow=hidden;points=[[0,0.5],[1,0.5]];portConstraint=eastwest;rotatable=0;whiteSpace=wrap;html=1;" parent="1twqKFGYZjAHJptiLmNI-43" vertex="1">
          <mxGeometry y="120" width="140" height="30" as="geometry" />
        </mxCell>
        <mxCell id="1twqKFGYZjAHJptiLmNI-45" value="Système utilisé" style="text;strokeColor=none;fillColor=none;align=left;verticalAlign=middle;spacingLeft=4;spacingRight=4;overflow=hidden;points=[[0,0.5],[1,0.5]];portConstraint=eastwest;rotatable=0;whiteSpace=wrap;html=1;" parent="1twqKFGYZjAHJptiLmNI-43" vertex="1">
          <mxGeometry y="150" width="140" height="30" as="geometry" />
        </mxCell>
        <mxCell id="1twqKFGYZjAHJptiLmNI-46" value="Img Profil" style="text;strokeColor=none;fillColor=none;align=left;verticalAlign=middle;spacingLeft=4;spacingRight=4;overflow=hidden;points=[[0,0.5],[1,0.5]];portConstraint=eastwest;rotatable=0;whiteSpace=wrap;html=1;" parent="1twqKFGYZjAHJptiLmNI-43" vertex="1">
          <mxGeometry y="180" width="140" height="30" as="geometry" />
        </mxCell>
        <mxCell id="1twqKFGYZjAHJptiLmNI-49" value="Chat" style="text;strokeColor=none;fillColor=none;align=left;verticalAlign=middle;spacingLeft=4;spacingRight=4;overflow=hidden;points=[[0,0.5],[1,0.5]];portConstraint=eastwest;rotatable=0;whiteSpace=wrap;html=1;" parent="1twqKFGYZjAHJptiLmNI-43" vertex="1">
          <mxGeometry y="210" width="140" height="30" as="geometry" />
        </mxCell>
        <mxCell id="1twqKFGYZjAHJptiLmNI-50" value="" style="edgeStyle=orthogonalEdgeStyle;rounded=0;orthogonalLoop=1;jettySize=auto;html=1;endArrow=classic;endFill=1;" parent="1" source="1twqKFGYZjAHJptiLmNI-87" target="1twqKFGYZjAHJptiLmNI-44" edge="1">
          <mxGeometry relative="1" as="geometry">
            <mxPoint x="529.9999999999998" y="1170" as="sourcePoint" />
          </mxGeometry>
        </mxCell>
        <mxCell id="1twqKFGYZjAHJptiLmNI-52" value="" style="edgeStyle=orthogonalEdgeStyle;rounded=0;orthogonalLoop=1;jettySize=auto;html=1;endArrow=classic;endFill=1;" parent="1" source="1twqKFGYZjAHJptiLmNI-34" target="1twqKFGYZjAHJptiLmNI-43" edge="1">
          <mxGeometry relative="1" as="geometry">
            <mxPoint x="454" y="1310" as="sourcePoint" />
            <Array as="points">
              <mxPoint x="620" y="1080" />
            </Array>
          </mxGeometry>
        </mxCell>
        <mxCell id="1twqKFGYZjAHJptiLmNI-59" value="Profil_joueur" style="swimlane;fontStyle=0;childLayout=stackLayout;horizontal=1;startSize=30;horizontalStack=0;resizeParent=1;resizeParentMax=0;resizeLast=0;collapsible=1;marginBottom=0;whiteSpace=wrap;html=1;" parent="1" vertex="1">
          <mxGeometry x="217" y="1690" width="140" height="270" as="geometry" />
        </mxCell>
        <mxCell id="1twqKFGYZjAHJptiLmNI-89" value="&lt;u&gt;id-profil&lt;/u&gt;" style="text;strokeColor=none;fillColor=none;align=left;verticalAlign=middle;spacingLeft=4;spacingRight=4;overflow=hidden;points=[[0,0.5],[1,0.5]];portConstraint=eastwest;rotatable=0;whiteSpace=wrap;html=1;" parent="1twqKFGYZjAHJptiLmNI-59" vertex="1">
          <mxGeometry y="30" width="140" height="30" as="geometry" />
        </mxCell>
        <mxCell id="1twqKFGYZjAHJptiLmNI-104" value="#id-user" style="text;strokeColor=none;fillColor=none;align=left;verticalAlign=middle;spacingLeft=4;spacingRight=4;overflow=hidden;points=[[0,0.5],[1,0.5]];portConstraint=eastwest;rotatable=0;whiteSpace=wrap;html=1;" parent="1twqKFGYZjAHJptiLmNI-59" vertex="1">
          <mxGeometry y="60" width="140" height="30" as="geometry" />
        </mxCell>
        <mxCell id="1twqKFGYZjAHJptiLmNI-60" value="pseudo" style="text;strokeColor=none;fillColor=none;align=left;verticalAlign=middle;spacingLeft=4;spacingRight=4;overflow=hidden;points=[[0,0.5],[1,0.5]];portConstraint=eastwest;rotatable=0;whiteSpace=wrap;html=1;" parent="1twqKFGYZjAHJptiLmNI-59" vertex="1">
          <mxGeometry y="90" width="140" height="30" as="geometry" />
        </mxCell>
        <mxCell id="1twqKFGYZjAHJptiLmNI-61" value="img_profil" style="text;strokeColor=none;fillColor=none;align=left;verticalAlign=middle;spacingLeft=4;spacingRight=4;overflow=hidden;points=[[0,0.5],[1,0.5]];portConstraint=eastwest;rotatable=0;whiteSpace=wrap;html=1;" parent="1twqKFGYZjAHJptiLmNI-59" vertex="1">
          <mxGeometry y="120" width="140" height="30" as="geometry" />
        </mxCell>
        <mxCell id="1twqKFGYZjAHJptiLmNI-62" value="date_creation" style="text;strokeColor=none;fillColor=none;align=left;verticalAlign=middle;spacingLeft=4;spacingRight=4;overflow=hidden;points=[[0,0.5],[1,0.5]];portConstraint=eastwest;rotatable=0;whiteSpace=wrap;html=1;" parent="1twqKFGYZjAHJptiLmNI-59" vertex="1">
          <mxGeometry y="150" width="140" height="30" as="geometry" />
        </mxCell>
        <mxCell id="1twqKFGYZjAHJptiLmNI-63" value="jeux_maitrises" style="text;strokeColor=none;fillColor=none;align=left;verticalAlign=middle;spacingLeft=4;spacingRight=4;overflow=hidden;points=[[0,0.5],[1,0.5]];portConstraint=eastwest;rotatable=0;whiteSpace=wrap;html=1;" parent="1twqKFGYZjAHJptiLmNI-59" vertex="1">
          <mxGeometry y="180" width="140" height="30" as="geometry" />
        </mxCell>
        <mxCell id="1twqKFGYZjAHJptiLmNI-64" value="description" style="text;strokeColor=none;fillColor=none;align=left;verticalAlign=middle;spacingLeft=4;spacingRight=4;overflow=hidden;points=[[0,0.5],[1,0.5]];portConstraint=eastwest;rotatable=0;whiteSpace=wrap;html=1;" parent="1twqKFGYZjAHJptiLmNI-59" vertex="1">
          <mxGeometry y="210" width="140" height="30" as="geometry" />
        </mxCell>
        <mxCell id="1twqKFGYZjAHJptiLmNI-65" value="MJ ou pas MJ" style="text;strokeColor=none;fillColor=none;align=left;verticalAlign=middle;spacingLeft=4;spacingRight=4;overflow=hidden;points=[[0,0.5],[1,0.5]];portConstraint=eastwest;rotatable=0;whiteSpace=wrap;html=1;" parent="1twqKFGYZjAHJptiLmNI-59" vertex="1">
          <mxGeometry y="240" width="140" height="30" as="geometry" />
        </mxCell>
        <mxCell id="1twqKFGYZjAHJptiLmNI-66" style="edgeStyle=orthogonalEdgeStyle;rounded=0;orthogonalLoop=1;jettySize=auto;html=1;endArrow=block;endFill=1;" parent="1" source="1twqKFGYZjAHJptiLmNI-34" target="1twqKFGYZjAHJptiLmNI-59" edge="1">
          <mxGeometry relative="1" as="geometry">
            <mxPoint x="287" y="1540" as="sourcePoint" />
          </mxGeometry>
        </mxCell>
        <mxCell id="1twqKFGYZjAHJptiLmNI-69" style="edgeStyle=orthogonalEdgeStyle;rounded=0;orthogonalLoop=1;jettySize=auto;html=1;endArrow=block;endFill=1;" parent="1" source="1twqKFGYZjAHJptiLmNI-34" target="1twqKFGYZjAHJptiLmNI-90" edge="1">
          <mxGeometry relative="1" as="geometry">
            <Array as="points">
              <mxPoint x="370" y="1195" />
              <mxPoint x="370" y="1640" />
            </Array>
            <mxPoint x="357" y="1265" as="targetPoint" />
            <mxPoint x="420" y="1360" as="sourcePoint" />
          </mxGeometry>
        </mxCell>
        <mxCell id="1twqKFGYZjAHJptiLmNI-70" style="edgeStyle=orthogonalEdgeStyle;rounded=0;orthogonalLoop=1;jettySize=auto;html=1;endArrow=block;endFill=1;" parent="1" source="1twqKFGYZjAHJptiLmNI-90" target="1twqKFGYZjAHJptiLmNI-64" edge="1">
          <mxGeometry relative="1" as="geometry">
            <mxPoint x="529.9999999999998" y="1680" as="sourcePoint" />
          </mxGeometry>
        </mxCell>
        <mxCell id="1twqKFGYZjAHJptiLmNI-75" style="edgeStyle=orthogonalEdgeStyle;rounded=0;orthogonalLoop=1;jettySize=auto;html=1;endArrow=blockThin;endFill=1;" parent="1" source="1twqKFGYZjAHJptiLmNI-34" target="1twqKFGYZjAHJptiLmNI-105" edge="1">
          <mxGeometry relative="1" as="geometry">
            <mxPoint x="40" y="1100" as="sourcePoint" />
          </mxGeometry>
        </mxCell>
        <mxCell id="1twqKFGYZjAHJptiLmNI-80" value="Chat" style="swimlane;fontStyle=0;childLayout=stackLayout;horizontal=1;startSize=30;horizontalStack=0;resizeParent=1;resizeParentMax=0;resizeLast=0;collapsible=1;marginBottom=0;whiteSpace=wrap;html=1;" parent="1" vertex="1">
          <mxGeometry x="750" y="1350" width="140" height="120" as="geometry" />
        </mxCell>
        <mxCell id="1twqKFGYZjAHJptiLmNI-102" value="&lt;u&gt;id-tablechat&lt;/u&gt;" style="text;strokeColor=none;fillColor=none;align=left;verticalAlign=middle;spacingLeft=4;spacingRight=4;overflow=hidden;points=[[0,0.5],[1,0.5]];portConstraint=eastwest;rotatable=0;whiteSpace=wrap;html=1;" parent="1twqKFGYZjAHJptiLmNI-80" vertex="1">
          <mxGeometry y="30" width="140" height="30" as="geometry" />
        </mxCell>
        <mxCell id="1twqKFGYZjAHJptiLmNI-81" value="#id-table" style="text;strokeColor=none;fillColor=none;align=left;verticalAlign=middle;spacingLeft=4;spacingRight=4;overflow=hidden;points=[[0,0.5],[1,0.5]];portConstraint=eastwest;rotatable=0;whiteSpace=wrap;html=1;" parent="1twqKFGYZjAHJptiLmNI-80" vertex="1">
          <mxGeometry y="60" width="140" height="30" as="geometry" />
        </mxCell>
        <mxCell id="1twqKFGYZjAHJptiLmNI-130" value="Messages" style="text;strokeColor=none;fillColor=none;align=left;verticalAlign=middle;spacingLeft=4;spacingRight=4;overflow=hidden;points=[[0,0.5],[1,0.5]];portConstraint=eastwest;rotatable=0;whiteSpace=wrap;html=1;" parent="1twqKFGYZjAHJptiLmNI-80" vertex="1">
          <mxGeometry y="90" width="140" height="30" as="geometry" />
        </mxCell>
        <mxCell id="1twqKFGYZjAHJptiLmNI-82" style="edgeStyle=orthogonalEdgeStyle;rounded=0;orthogonalLoop=1;jettySize=auto;html=1;endArrow=classic;endFill=1;" parent="1" source="1twqKFGYZjAHJptiLmNI-80" target="1twqKFGYZjAHJptiLmNI-83" edge="1">
          <mxGeometry relative="1" as="geometry">
            <mxPoint x="1000" y="1400" as="sourcePoint" />
            <mxPoint x="1020" y="1450" as="targetPoint" />
            <Array as="points">
              <mxPoint x="1020" y="1410" />
            </Array>
          </mxGeometry>
        </mxCell>
        <mxCell id="1twqKFGYZjAHJptiLmNI-83" value="message" style="swimlane;fontStyle=0;childLayout=stackLayout;horizontal=1;startSize=30;horizontalStack=0;resizeParent=1;resizeParentMax=0;resizeLast=0;collapsible=1;marginBottom=0;whiteSpace=wrap;html=1;" parent="1" vertex="1">
          <mxGeometry x="1010" y="1340" width="140" height="150" as="geometry" />
        </mxCell>
        <mxCell id="1twqKFGYZjAHJptiLmNI-103" value="&lt;u&gt;id-message&lt;/u&gt;" style="text;strokeColor=none;fillColor=none;align=left;verticalAlign=middle;spacingLeft=4;spacingRight=4;overflow=hidden;points=[[0,0.5],[1,0.5]];portConstraint=eastwest;rotatable=0;whiteSpace=wrap;html=1;" parent="1twqKFGYZjAHJptiLmNI-83" vertex="1">
          <mxGeometry y="30" width="140" height="30" as="geometry" />
        </mxCell>
        <mxCell id="1twqKFGYZjAHJptiLmNI-84" value="contenu" style="text;strokeColor=none;fillColor=none;align=left;verticalAlign=middle;spacingLeft=4;spacingRight=4;overflow=hidden;points=[[0,0.5],[1,0.5]];portConstraint=eastwest;rotatable=0;whiteSpace=wrap;html=1;" parent="1twqKFGYZjAHJptiLmNI-83" vertex="1">
          <mxGeometry y="60" width="140" height="30" as="geometry" />
        </mxCell>
        <mxCell id="1twqKFGYZjAHJptiLmNI-85" value="date_creation" style="text;strokeColor=none;fillColor=none;align=left;verticalAlign=middle;spacingLeft=4;spacingRight=4;overflow=hidden;points=[[0,0.5],[1,0.5]];portConstraint=eastwest;rotatable=0;whiteSpace=wrap;html=1;" parent="1twqKFGYZjAHJptiLmNI-83" vertex="1">
          <mxGeometry y="90" width="140" height="30" as="geometry" />
        </mxCell>
        <mxCell id="1twqKFGYZjAHJptiLmNI-86" value="#id-user" style="text;strokeColor=none;fillColor=none;align=left;verticalAlign=middle;spacingLeft=4;spacingRight=4;overflow=hidden;points=[[0,0.5],[1,0.5]];portConstraint=eastwest;rotatable=0;whiteSpace=wrap;html=1;" parent="1twqKFGYZjAHJptiLmNI-83" vertex="1">
          <mxGeometry y="120" width="140" height="30" as="geometry" />
        </mxCell>
        <mxCell id="1twqKFGYZjAHJptiLmNI-90" value="recherche" style="swimlane;fontStyle=0;childLayout=stackLayout;horizontal=1;startSize=30;horizontalStack=0;resizeParent=1;resizeParentMax=0;resizeLast=0;collapsible=1;marginBottom=0;whiteSpace=wrap;html=1;" parent="1" vertex="1">
          <mxGeometry x="470" y="1590" width="140" height="150" as="geometry" />
        </mxCell>
        <mxCell id="1twqKFGYZjAHJptiLmNI-98" value="&lt;span style=&quot;color: rgb(240, 240, 240); font-family: Helvetica; font-size: 12px; font-style: normal; font-variant-ligatures: normal; font-variant-caps: normal; font-weight: 400; letter-spacing: normal; orphans: 2; text-align: left; text-indent: 0px; text-transform: none; widows: 2; word-spacing: 0px; -webkit-text-stroke-width: 0px; background-color: rgb(27, 29, 30); text-decoration-thickness: initial; text-decoration-style: initial; text-decoration-color: initial; float: none; display: inline !important;&quot;&gt;&lt;u&gt;id-recherche&lt;/u&gt;&lt;/span&gt;" style="text;whiteSpace=wrap;html=1;" parent="1twqKFGYZjAHJptiLmNI-90" vertex="1">
          <mxGeometry y="30" width="140" height="30" as="geometry" />
        </mxCell>
        <mxCell id="1twqKFGYZjAHJptiLmNI-91" value="#id-user" style="text;strokeColor=none;fillColor=none;align=left;verticalAlign=middle;spacingLeft=4;spacingRight=4;overflow=hidden;points=[[0,0.5],[1,0.5]];portConstraint=eastwest;rotatable=0;whiteSpace=wrap;html=1;" parent="1twqKFGYZjAHJptiLmNI-90" vertex="1">
          <mxGeometry y="60" width="140" height="30" as="geometry" />
        </mxCell>
        <mxCell id="1twqKFGYZjAHJptiLmNI-99" value="#id-profil" style="text;strokeColor=none;fillColor=none;align=left;verticalAlign=middle;spacingLeft=4;spacingRight=4;overflow=hidden;points=[[0,0.5],[1,0.5]];portConstraint=eastwest;rotatable=0;whiteSpace=wrap;html=1;" parent="1twqKFGYZjAHJptiLmNI-90" vertex="1">
          <mxGeometry y="90" width="140" height="30" as="geometry" />
        </mxCell>
        <mxCell id="1twqKFGYZjAHJptiLmNI-202" value="date-recherche" style="text;strokeColor=none;fillColor=none;align=left;verticalAlign=middle;spacingLeft=4;spacingRight=4;overflow=hidden;points=[[0,0.5],[1,0.5]];portConstraint=eastwest;rotatable=0;whiteSpace=wrap;html=1;" parent="1twqKFGYZjAHJptiLmNI-90" vertex="1">
          <mxGeometry y="120" width="140" height="30" as="geometry" />
        </mxCell>
        <mxCell id="1twqKFGYZjAHJptiLmNI-114" value="" style="edgeStyle=orthogonalEdgeStyle;rounded=0;orthogonalLoop=1;jettySize=auto;html=1;endArrow=block;endFill=1;" parent="1" source="1twqKFGYZjAHJptiLmNI-105" target="1twqKFGYZjAHJptiLmNI-59" edge="1">
          <mxGeometry relative="1" as="geometry">
            <Array as="points">
              <mxPoint x="100" y="1825" />
            </Array>
            <mxPoint x="217" y="1890" as="sourcePoint" />
            <mxPoint x="150" y="1680" as="targetPoint" />
          </mxGeometry>
        </mxCell>
        <mxCell id="1twqKFGYZjAHJptiLmNI-105" value="message_prive" style="swimlane;fontStyle=0;childLayout=stackLayout;horizontal=1;startSize=30;horizontalStack=0;resizeParent=1;resizeParentMax=0;resizeLast=0;collapsible=1;marginBottom=0;whiteSpace=wrap;html=1;" parent="1" vertex="1">
          <mxGeometry x="30" y="1350" width="140" height="150" as="geometry" />
        </mxCell>
        <mxCell id="1twqKFGYZjAHJptiLmNI-117" value="&lt;span style=&quot;color: rgb(240, 240, 240); font-family: Helvetica; font-size: 12px; font-style: normal; font-variant-ligatures: normal; font-variant-caps: normal; font-weight: 400; letter-spacing: normal; orphans: 2; text-align: left; text-indent: 0px; text-transform: none; widows: 2; word-spacing: 0px; -webkit-text-stroke-width: 0px; background-color: rgb(27, 29, 30); text-decoration-thickness: initial; text-decoration-style: initial; text-decoration-color: initial; float: none; display: inline !important;&quot;&gt;&lt;u&gt;id-pmessage&lt;/u&gt;&lt;/span&gt;" style="text;whiteSpace=wrap;html=1;" parent="1twqKFGYZjAHJptiLmNI-105" vertex="1">
          <mxGeometry y="30" width="140" height="30" as="geometry" />
        </mxCell>
        <mxCell id="1twqKFGYZjAHJptiLmNI-107" value="#id-user (émetteur)" style="text;strokeColor=none;fillColor=none;align=left;verticalAlign=middle;spacingLeft=4;spacingRight=4;overflow=hidden;points=[[0,0.5],[1,0.5]];portConstraint=eastwest;rotatable=0;whiteSpace=wrap;html=1;" parent="1twqKFGYZjAHJptiLmNI-105" vertex="1">
          <mxGeometry y="60" width="140" height="30" as="geometry" />
        </mxCell>
        <mxCell id="1twqKFGYZjAHJptiLmNI-115" value="#id-profil (récepteur)" style="text;strokeColor=none;fillColor=none;align=left;verticalAlign=middle;spacingLeft=4;spacingRight=4;overflow=hidden;points=[[0,0.5],[1,0.5]];portConstraint=eastwest;rotatable=0;whiteSpace=wrap;html=1;" parent="1twqKFGYZjAHJptiLmNI-105" vertex="1">
          <mxGeometry y="90" width="140" height="30" as="geometry" />
        </mxCell>
        <mxCell id="1twqKFGYZjAHJptiLmNI-116" value="contenu" style="text;strokeColor=none;fillColor=none;align=left;verticalAlign=middle;spacingLeft=4;spacingRight=4;overflow=hidden;points=[[0,0.5],[1,0.5]];portConstraint=eastwest;rotatable=0;whiteSpace=wrap;html=1;" parent="1twqKFGYZjAHJptiLmNI-105" vertex="1">
          <mxGeometry y="120" width="140" height="30" as="geometry" />
        </mxCell>
        <mxCell id="1twqKFGYZjAHJptiLmNI-132" value="1.1" style="text;html=1;align=center;verticalAlign=middle;resizable=0;points=[];autosize=1;strokeColor=none;fillColor=none;" parent="1" vertex="1">
          <mxGeometry x="670" y="235" width="40" height="30" as="geometry" />
        </mxCell>
        <mxCell id="1twqKFGYZjAHJptiLmNI-134" value="contient" style="ellipse;whiteSpace=wrap;html=1;" parent="1" vertex="1">
          <mxGeometry x="740" y="235" width="120" height="80" as="geometry" />
        </mxCell>
        <mxCell id="1twqKFGYZjAHJptiLmNI-135" value="1.1" style="text;html=1;align=center;verticalAlign=middle;resizable=0;points=[];autosize=1;strokeColor=none;fillColor=none;" parent="1" vertex="1">
          <mxGeometry x="890" y="235" width="40" height="30" as="geometry" />
        </mxCell>
        <mxCell id="1twqKFGYZjAHJptiLmNI-136" value="contient" style="ellipse;whiteSpace=wrap;html=1;" parent="1" vertex="1">
          <mxGeometry x="1121" y="220" width="120" height="80" as="geometry" />
        </mxCell>
        <mxCell id="1twqKFGYZjAHJptiLmNI-137" value="0.n" style="text;html=1;align=center;verticalAlign=middle;resizable=0;points=[];autosize=1;strokeColor=none;fillColor=none;" parent="1" vertex="1">
          <mxGeometry x="1250" y="230" width="40" height="30" as="geometry" />
        </mxCell>
        <mxCell id="1twqKFGYZjAHJptiLmNI-138" value="1.1" style="text;html=1;align=center;verticalAlign=middle;resizable=0;points=[];autosize=1;strokeColor=none;fillColor=none;" parent="1" vertex="1">
          <mxGeometry x="1070" y="235" width="40" height="30" as="geometry" />
        </mxCell>
        <mxCell id="1twqKFGYZjAHJptiLmNI-139" value="écrit" style="ellipse;whiteSpace=wrap;html=1;" parent="1" vertex="1">
          <mxGeometry x="840" y="-90" width="120" height="80" as="geometry" />
        </mxCell>
        <mxCell id="1twqKFGYZjAHJptiLmNI-140" value="1.1" style="text;html=1;align=center;verticalAlign=middle;resizable=0;points=[];autosize=1;strokeColor=none;fillColor=none;" parent="1" vertex="1">
          <mxGeometry x="787" y="-80" width="40" height="30" as="geometry" />
        </mxCell>
        <mxCell id="1twqKFGYZjAHJptiLmNI-141" value="0.n" style="text;html=1;align=center;verticalAlign=middle;resizable=0;points=[];autosize=1;strokeColor=none;fillColor=none;" parent="1" vertex="1">
          <mxGeometry x="990" y="10" width="40" height="30" as="geometry" />
        </mxCell>
        <mxCell id="1twqKFGYZjAHJptiLmNI-143" value="MCD" style="text;html=1;align=center;verticalAlign=middle;resizable=0;points=[];autosize=1;strokeColor=none;fillColor=none;fontSize=100;" parent="1" vertex="1">
          <mxGeometry x="950" y="470" width="250" height="130" as="geometry" />
        </mxCell>
        <mxCell id="1twqKFGYZjAHJptiLmNI-144" value="&lt;font style=&quot;font-size: 100px;&quot;&gt;MLD&lt;/font&gt;" style="text;html=1;align=center;verticalAlign=middle;resizable=0;points=[];autosize=1;strokeColor=none;fillColor=none;fontSize=50;" parent="1" vertex="1">
          <mxGeometry x="777" y="1610" width="230" height="130" as="geometry" />
        </mxCell>
        <mxCell id="1twqKFGYZjAHJptiLmNI-145" style="edgeStyle=orthogonalEdgeStyle;rounded=0;orthogonalLoop=1;jettySize=auto;html=1;endArrow=classic;endFill=1;" parent="1" source="1twqKFGYZjAHJptiLmNI-146" target="1twqKFGYZjAHJptiLmNI-184" edge="1">
          <mxGeometry relative="1" as="geometry">
            <Array as="points">
              <mxPoint x="270" y="2209.9700000000003" />
              <mxPoint x="1020" y="2209.9700000000003" />
              <mxPoint x="1020" y="2364.9700000000003" />
              <mxPoint x="1270" y="2364.9700000000003" />
            </Array>
          </mxGeometry>
        </mxCell>
        <mxCell id="1twqKFGYZjAHJptiLmNI-146" value="USER" style="swimlane;fontStyle=0;childLayout=stackLayout;horizontal=1;startSize=30;horizontalStack=0;resizeParent=1;resizeParentMax=0;resizeLast=0;collapsible=1;marginBottom=0;whiteSpace=wrap;html=1;" parent="1" vertex="1">
          <mxGeometry x="202" y="2229.9700000000003" width="140" height="270" as="geometry" />
        </mxCell>
        <mxCell id="1twqKFGYZjAHJptiLmNI-147" value="&lt;u&gt;id-user INT AUTO-INCREMENT&lt;/u&gt;" style="text;strokeColor=none;fillColor=none;align=left;verticalAlign=middle;spacingLeft=4;spacingRight=4;overflow=hidden;points=[[0,0.5],[1,0.5]];portConstraint=eastwest;rotatable=0;whiteSpace=wrap;html=1;" parent="1twqKFGYZjAHJptiLmNI-146" vertex="1">
          <mxGeometry y="30" width="140" height="30" as="geometry" />
        </mxCell>
        <mxCell id="1twqKFGYZjAHJptiLmNI-148" value="Nom VARCHAR60 NOT NULL" style="text;strokeColor=none;fillColor=none;align=left;verticalAlign=middle;spacingLeft=4;spacingRight=4;overflow=hidden;points=[[0,0.5],[1,0.5]];portConstraint=eastwest;rotatable=0;whiteSpace=wrap;html=1;" parent="1twqKFGYZjAHJptiLmNI-146" vertex="1">
          <mxGeometry y="60" width="140" height="30" as="geometry" />
        </mxCell>
        <mxCell id="1twqKFGYZjAHJptiLmNI-149" value="Prénom VARCHAR60 NOT NULL" style="text;strokeColor=none;fillColor=none;align=left;verticalAlign=middle;spacingLeft=4;spacingRight=4;overflow=hidden;points=[[0,0.5],[1,0.5]];portConstraint=eastwest;rotatable=0;whiteSpace=wrap;html=1;" parent="1twqKFGYZjAHJptiLmNI-146" vertex="1">
          <mxGeometry y="90" width="140" height="30" as="geometry" />
        </mxCell>
        <mxCell id="1twqKFGYZjAHJptiLmNI-150" value="Email VARCHAR100 NOT NULL" style="text;strokeColor=none;fillColor=none;align=left;verticalAlign=middle;spacingLeft=4;spacingRight=4;overflow=hidden;points=[[0,0.5],[1,0.5]];portConstraint=eastwest;rotatable=0;whiteSpace=wrap;html=1;" parent="1twqKFGYZjAHJptiLmNI-146" vertex="1">
          <mxGeometry y="120" width="140" height="30" as="geometry" />
        </mxCell>
        <mxCell id="1twqKFGYZjAHJptiLmNI-151" value="Date de naissance DATE NOT NULL" style="text;strokeColor=none;fillColor=none;align=left;verticalAlign=middle;spacingLeft=4;spacingRight=4;overflow=hidden;points=[[0,0.5],[1,0.5]];portConstraint=eastwest;rotatable=0;whiteSpace=wrap;html=1;" parent="1twqKFGYZjAHJptiLmNI-146" vertex="1">
          <mxGeometry y="150" width="140" height="30" as="geometry" />
        </mxCell>
        <mxCell id="1twqKFGYZjAHJptiLmNI-152" value="Ville de résidence VARCHAR30 NOT NULL" style="text;strokeColor=none;fillColor=none;align=left;verticalAlign=middle;spacingLeft=4;spacingRight=4;overflow=hidden;points=[[0,0.5],[1,0.5]];portConstraint=eastwest;rotatable=0;whiteSpace=wrap;html=1;" parent="1twqKFGYZjAHJptiLmNI-146" vertex="1">
          <mxGeometry y="180" width="140" height="30" as="geometry" />
        </mxCell>
        <mxCell id="1twqKFGYZjAHJptiLmNI-153" value="Date d&#39;inscription DATETIME" style="text;strokeColor=none;fillColor=none;align=left;verticalAlign=middle;spacingLeft=4;spacingRight=4;overflow=hidden;points=[[0,0.5],[1,0.5]];portConstraint=eastwest;rotatable=0;whiteSpace=wrap;html=1;" parent="1twqKFGYZjAHJptiLmNI-146" vertex="1">
          <mxGeometry y="210" width="140" height="30" as="geometry" />
        </mxCell>
        <mxCell id="1twqKFGYZjAHJptiLmNI-154" value="Hash VARCHAR120 NOT NULL" style="text;strokeColor=none;fillColor=none;align=left;verticalAlign=middle;spacingLeft=4;spacingRight=4;overflow=hidden;points=[[0,0.5],[1,0.5]];portConstraint=eastwest;rotatable=0;whiteSpace=wrap;html=1;" parent="1twqKFGYZjAHJptiLmNI-146" vertex="1">
          <mxGeometry y="240" width="140" height="30" as="geometry" />
        </mxCell>
        <mxCell id="1twqKFGYZjAHJptiLmNI-155" style="edgeStyle=orthogonalEdgeStyle;rounded=0;orthogonalLoop=1;jettySize=auto;html=1;endArrow=classic;endFill=1;" parent="1" source="1twqKFGYZjAHJptiLmNI-156" target="1twqKFGYZjAHJptiLmNI-179" edge="1">
          <mxGeometry relative="1" as="geometry" />
        </mxCell>
        <mxCell id="1twqKFGYZjAHJptiLmNI-156" value="TABLE de jeu" style="swimlane;fontStyle=0;childLayout=stackLayout;horizontal=1;startSize=30;horizontalStack=0;resizeParent=1;resizeParentMax=0;resizeLast=0;collapsible=1;marginBottom=0;whiteSpace=wrap;html=1;" parent="1" vertex="1">
          <mxGeometry x="560" y="2429.9700000000003" width="140" height="210" as="geometry" />
        </mxCell>
        <mxCell id="1twqKFGYZjAHJptiLmNI-157" value="&lt;u&gt;id-table INT AUTO-INCREMENT&lt;/u&gt;" style="text;strokeColor=none;fillColor=none;align=left;verticalAlign=middle;spacingLeft=4;spacingRight=4;overflow=hidden;points=[[0,0.5],[1,0.5]];portConstraint=eastwest;rotatable=0;whiteSpace=wrap;html=1;" parent="1twqKFGYZjAHJptiLmNI-156" vertex="1">
          <mxGeometry y="30" width="140" height="30" as="geometry" />
        </mxCell>
        <mxCell id="1twqKFGYZjAHJptiLmNI-158" value="#id-user (MJ) INT&amp;nbsp;" style="text;strokeColor=none;fillColor=none;align=left;verticalAlign=middle;spacingLeft=4;spacingRight=4;overflow=hidden;points=[[0,0.5],[1,0.5]];portConstraint=eastwest;rotatable=0;whiteSpace=wrap;html=1;" parent="1twqKFGYZjAHJptiLmNI-156" vertex="1">
          <mxGeometry y="60" width="140" height="30" as="geometry" />
        </mxCell>
        <mxCell id="1twqKFGYZjAHJptiLmNI-159" value="#id-profil (Joueur)" style="text;strokeColor=none;fillColor=none;align=left;verticalAlign=middle;spacingLeft=4;spacingRight=4;overflow=hidden;points=[[0,0.5],[1,0.5]];portConstraint=eastwest;rotatable=0;whiteSpace=wrap;html=1;" parent="1twqKFGYZjAHJptiLmNI-156" vertex="1">
          <mxGeometry y="90" width="140" height="30" as="geometry" />
        </mxCell>
        <mxCell id="1twqKFGYZjAHJptiLmNI-160" value="Nom VARCHAR60 NOT NULL" style="text;strokeColor=none;fillColor=none;align=left;verticalAlign=middle;spacingLeft=4;spacingRight=4;overflow=hidden;points=[[0,0.5],[1,0.5]];portConstraint=eastwest;rotatable=0;whiteSpace=wrap;html=1;" parent="1twqKFGYZjAHJptiLmNI-156" vertex="1">
          <mxGeometry y="120" width="140" height="30" as="geometry" />
        </mxCell>
        <mxCell id="1twqKFGYZjAHJptiLmNI-161" value="Système utilisé VARCHAR100 NOT NULL" style="text;strokeColor=none;fillColor=none;align=left;verticalAlign=middle;spacingLeft=4;spacingRight=4;overflow=hidden;points=[[0,0.5],[1,0.5]];portConstraint=eastwest;rotatable=0;whiteSpace=wrap;html=1;" parent="1twqKFGYZjAHJptiLmNI-156" vertex="1">
          <mxGeometry y="150" width="140" height="30" as="geometry" />
        </mxCell>
        <mxCell id="1twqKFGYZjAHJptiLmNI-162" value="Img Profil VARCHAR100" style="text;strokeColor=none;fillColor=none;align=left;verticalAlign=middle;spacingLeft=4;spacingRight=4;overflow=hidden;points=[[0,0.5],[1,0.5]];portConstraint=eastwest;rotatable=0;whiteSpace=wrap;html=1;" parent="1twqKFGYZjAHJptiLmNI-156" vertex="1">
          <mxGeometry y="180" width="140" height="30" as="geometry" />
        </mxCell>
        <mxCell id="1twqKFGYZjAHJptiLmNI-164" value="" style="edgeStyle=orthogonalEdgeStyle;rounded=0;orthogonalLoop=1;jettySize=auto;html=1;endArrow=classic;endFill=1;" parent="1" source="1twqKFGYZjAHJptiLmNI-147" target="1twqKFGYZjAHJptiLmNI-160" edge="1">
          <mxGeometry relative="1" as="geometry">
            <mxPoint x="539.9999999999998" y="2339.9700000000003" as="sourcePoint" />
          </mxGeometry>
        </mxCell>
        <mxCell id="1twqKFGYZjAHJptiLmNI-165" value="" style="edgeStyle=orthogonalEdgeStyle;rounded=0;orthogonalLoop=1;jettySize=auto;html=1;endArrow=classic;endFill=1;" parent="1" source="1twqKFGYZjAHJptiLmNI-146" target="1twqKFGYZjAHJptiLmNI-156" edge="1">
          <mxGeometry relative="1" as="geometry">
            <mxPoint x="464" y="2479.9700000000003" as="sourcePoint" />
            <Array as="points">
              <mxPoint x="630" y="2249.9700000000003" />
            </Array>
          </mxGeometry>
        </mxCell>
        <mxCell id="1twqKFGYZjAHJptiLmNI-166" value="Profil_joueur" style="swimlane;fontStyle=0;childLayout=stackLayout;horizontal=1;startSize=30;horizontalStack=0;resizeParent=1;resizeParentMax=0;resizeLast=0;collapsible=1;marginBottom=0;whiteSpace=wrap;html=1;" parent="1" vertex="1">
          <mxGeometry x="227" y="2859.9700000000003" width="140" height="270" as="geometry" />
        </mxCell>
        <mxCell id="1twqKFGYZjAHJptiLmNI-167" value="&lt;u&gt;id-profil INT AUTO-INCREMENT&lt;/u&gt;" style="text;strokeColor=none;fillColor=none;align=left;verticalAlign=middle;spacingLeft=4;spacingRight=4;overflow=hidden;points=[[0,0.5],[1,0.5]];portConstraint=eastwest;rotatable=0;whiteSpace=wrap;html=1;" parent="1twqKFGYZjAHJptiLmNI-166" vertex="1">
          <mxGeometry y="30" width="140" height="30" as="geometry" />
        </mxCell>
        <mxCell id="1twqKFGYZjAHJptiLmNI-168" value="#id-user INT" style="text;strokeColor=none;fillColor=none;align=left;verticalAlign=middle;spacingLeft=4;spacingRight=4;overflow=hidden;points=[[0,0.5],[1,0.5]];portConstraint=eastwest;rotatable=0;whiteSpace=wrap;html=1;" parent="1twqKFGYZjAHJptiLmNI-166" vertex="1">
          <mxGeometry y="60" width="140" height="30" as="geometry" />
        </mxCell>
        <mxCell id="1twqKFGYZjAHJptiLmNI-169" value="pseudo VARCHAR60" style="text;strokeColor=none;fillColor=none;align=left;verticalAlign=middle;spacingLeft=4;spacingRight=4;overflow=hidden;points=[[0,0.5],[1,0.5]];portConstraint=eastwest;rotatable=0;whiteSpace=wrap;html=1;" parent="1twqKFGYZjAHJptiLmNI-166" vertex="1">
          <mxGeometry y="90" width="140" height="30" as="geometry" />
        </mxCell>
        <mxCell id="1twqKFGYZjAHJptiLmNI-170" value="img_profil VARCHAR60" style="text;strokeColor=none;fillColor=none;align=left;verticalAlign=middle;spacingLeft=4;spacingRight=4;overflow=hidden;points=[[0,0.5],[1,0.5]];portConstraint=eastwest;rotatable=0;whiteSpace=wrap;html=1;" parent="1twqKFGYZjAHJptiLmNI-166" vertex="1">
          <mxGeometry y="120" width="140" height="30" as="geometry" />
        </mxCell>
        <mxCell id="1twqKFGYZjAHJptiLmNI-171" value="date_creation DATETIME" style="text;strokeColor=none;fillColor=none;align=left;verticalAlign=middle;spacingLeft=4;spacingRight=4;overflow=hidden;points=[[0,0.5],[1,0.5]];portConstraint=eastwest;rotatable=0;whiteSpace=wrap;html=1;" parent="1twqKFGYZjAHJptiLmNI-166" vertex="1">
          <mxGeometry y="150" width="140" height="30" as="geometry" />
        </mxCell>
        <mxCell id="1twqKFGYZjAHJptiLmNI-172" value="jeux_maitrises VARCHAR300" style="text;strokeColor=none;fillColor=none;align=left;verticalAlign=middle;spacingLeft=4;spacingRight=4;overflow=hidden;points=[[0,0.5],[1,0.5]];portConstraint=eastwest;rotatable=0;whiteSpace=wrap;html=1;" parent="1twqKFGYZjAHJptiLmNI-166" vertex="1">
          <mxGeometry y="180" width="140" height="30" as="geometry" />
        </mxCell>
        <mxCell id="1twqKFGYZjAHJptiLmNI-173" value="description VARCHAR1000" style="text;strokeColor=none;fillColor=none;align=left;verticalAlign=middle;spacingLeft=4;spacingRight=4;overflow=hidden;points=[[0,0.5],[1,0.5]];portConstraint=eastwest;rotatable=0;whiteSpace=wrap;html=1;" parent="1twqKFGYZjAHJptiLmNI-166" vertex="1">
          <mxGeometry y="210" width="140" height="30" as="geometry" />
        </mxCell>
        <mxCell id="1twqKFGYZjAHJptiLmNI-174" value="MJ ou pas MJ BOOL" style="text;strokeColor=none;fillColor=none;align=left;verticalAlign=middle;spacingLeft=4;spacingRight=4;overflow=hidden;points=[[0,0.5],[1,0.5]];portConstraint=eastwest;rotatable=0;whiteSpace=wrap;html=1;" parent="1twqKFGYZjAHJptiLmNI-166" vertex="1">
          <mxGeometry y="240" width="140" height="30" as="geometry" />
        </mxCell>
        <mxCell id="1twqKFGYZjAHJptiLmNI-175" style="edgeStyle=orthogonalEdgeStyle;rounded=0;orthogonalLoop=1;jettySize=auto;html=1;endArrow=block;endFill=1;" parent="1" source="1twqKFGYZjAHJptiLmNI-146" target="1twqKFGYZjAHJptiLmNI-166" edge="1">
          <mxGeometry relative="1" as="geometry">
            <mxPoint x="297" y="2709.9700000000003" as="sourcePoint" />
          </mxGeometry>
        </mxCell>
        <mxCell id="1twqKFGYZjAHJptiLmNI-176" style="edgeStyle=orthogonalEdgeStyle;rounded=0;orthogonalLoop=1;jettySize=auto;html=1;endArrow=block;endFill=1;" parent="1" source="1twqKFGYZjAHJptiLmNI-146" target="1twqKFGYZjAHJptiLmNI-189" edge="1">
          <mxGeometry relative="1" as="geometry">
            <Array as="points">
              <mxPoint x="380" y="2364.9700000000003" />
              <mxPoint x="380" y="2809.9700000000003" />
            </Array>
            <mxPoint x="367" y="2434.9700000000003" as="targetPoint" />
            <mxPoint x="430" y="2529.9700000000003" as="sourcePoint" />
          </mxGeometry>
        </mxCell>
        <mxCell id="1twqKFGYZjAHJptiLmNI-177" style="edgeStyle=orthogonalEdgeStyle;rounded=0;orthogonalLoop=1;jettySize=auto;html=1;endArrow=block;endFill=1;" parent="1" source="1twqKFGYZjAHJptiLmNI-189" target="1twqKFGYZjAHJptiLmNI-173" edge="1">
          <mxGeometry relative="1" as="geometry">
            <mxPoint x="539.9999999999998" y="2849.9700000000003" as="sourcePoint" />
          </mxGeometry>
        </mxCell>
        <mxCell id="1twqKFGYZjAHJptiLmNI-178" style="edgeStyle=orthogonalEdgeStyle;rounded=0;orthogonalLoop=1;jettySize=auto;html=1;endArrow=blockThin;endFill=1;" parent="1" source="1twqKFGYZjAHJptiLmNI-146" target="1twqKFGYZjAHJptiLmNI-194" edge="1">
          <mxGeometry relative="1" as="geometry">
            <mxPoint x="50" y="2269.9700000000003" as="sourcePoint" />
          </mxGeometry>
        </mxCell>
        <mxCell id="1twqKFGYZjAHJptiLmNI-179" value="Chat" style="swimlane;fontStyle=0;childLayout=stackLayout;horizontal=1;startSize=30;horizontalStack=0;resizeParent=1;resizeParentMax=0;resizeLast=0;collapsible=1;marginBottom=0;whiteSpace=wrap;html=1;" parent="1" vertex="1">
          <mxGeometry x="760" y="2519.9700000000003" width="140" height="120" as="geometry" />
        </mxCell>
        <mxCell id="1twqKFGYZjAHJptiLmNI-180" value="&lt;u&gt;id-tablechat INT&lt;/u&gt;" style="text;strokeColor=none;fillColor=none;align=left;verticalAlign=middle;spacingLeft=4;spacingRight=4;overflow=hidden;points=[[0,0.5],[1,0.5]];portConstraint=eastwest;rotatable=0;whiteSpace=wrap;html=1;" parent="1twqKFGYZjAHJptiLmNI-179" vertex="1">
          <mxGeometry y="30" width="140" height="30" as="geometry" />
        </mxCell>
        <mxCell id="1twqKFGYZjAHJptiLmNI-181" value="#id-table INT" style="text;strokeColor=none;fillColor=none;align=left;verticalAlign=middle;spacingLeft=4;spacingRight=4;overflow=hidden;points=[[0,0.5],[1,0.5]];portConstraint=eastwest;rotatable=0;whiteSpace=wrap;html=1;" parent="1twqKFGYZjAHJptiLmNI-179" vertex="1">
          <mxGeometry y="60" width="140" height="30" as="geometry" />
        </mxCell>
        <mxCell id="1twqKFGYZjAHJptiLmNI-200" value="#id-message INT" style="text;strokeColor=none;fillColor=none;align=left;verticalAlign=middle;spacingLeft=4;spacingRight=4;overflow=hidden;points=[[0,0.5],[1,0.5]];portConstraint=eastwest;rotatable=0;whiteSpace=wrap;html=1;" parent="1twqKFGYZjAHJptiLmNI-179" vertex="1">
          <mxGeometry y="90" width="140" height="30" as="geometry" />
        </mxCell>
        <mxCell id="1twqKFGYZjAHJptiLmNI-183" style="edgeStyle=orthogonalEdgeStyle;rounded=0;orthogonalLoop=1;jettySize=auto;html=1;endArrow=classic;endFill=1;" parent="1" source="1twqKFGYZjAHJptiLmNI-179" target="1twqKFGYZjAHJptiLmNI-184" edge="1">
          <mxGeometry relative="1" as="geometry">
            <mxPoint x="1010" y="2569.9700000000003" as="sourcePoint" />
            <mxPoint x="1030" y="2619.9700000000003" as="targetPoint" />
            <Array as="points">
              <mxPoint x="1030" y="2579.9700000000003" />
            </Array>
          </mxGeometry>
        </mxCell>
        <mxCell id="1twqKFGYZjAHJptiLmNI-184" value="message" style="swimlane;fontStyle=0;childLayout=stackLayout;horizontal=1;startSize=30;horizontalStack=0;resizeParent=1;resizeParentMax=0;resizeLast=0;collapsible=1;marginBottom=0;whiteSpace=wrap;html=1;" parent="1" vertex="1">
          <mxGeometry x="1020" y="2509.9700000000003" width="140" height="150" as="geometry" />
        </mxCell>
        <mxCell id="1twqKFGYZjAHJptiLmNI-185" value="&lt;u&gt;id-message INT AUTO-INCREMENT&lt;/u&gt;" style="text;strokeColor=none;fillColor=none;align=left;verticalAlign=middle;spacingLeft=4;spacingRight=4;overflow=hidden;points=[[0,0.5],[1,0.5]];portConstraint=eastwest;rotatable=0;whiteSpace=wrap;html=1;" parent="1twqKFGYZjAHJptiLmNI-184" vertex="1">
          <mxGeometry y="30" width="140" height="30" as="geometry" />
        </mxCell>
        <mxCell id="1twqKFGYZjAHJptiLmNI-186" value="contenu VARCHAR255 NOT NULL" style="text;strokeColor=none;fillColor=none;align=left;verticalAlign=middle;spacingLeft=4;spacingRight=4;overflow=hidden;points=[[0,0.5],[1,0.5]];portConstraint=eastwest;rotatable=0;whiteSpace=wrap;html=1;" parent="1twqKFGYZjAHJptiLmNI-184" vertex="1">
          <mxGeometry y="60" width="140" height="30" as="geometry" />
        </mxCell>
        <mxCell id="1twqKFGYZjAHJptiLmNI-187" value="date_creation DATETIME" style="text;strokeColor=none;fillColor=none;align=left;verticalAlign=middle;spacingLeft=4;spacingRight=4;overflow=hidden;points=[[0,0.5],[1,0.5]];portConstraint=eastwest;rotatable=0;whiteSpace=wrap;html=1;" parent="1twqKFGYZjAHJptiLmNI-184" vertex="1">
          <mxGeometry y="90" width="140" height="30" as="geometry" />
        </mxCell>
        <mxCell id="1twqKFGYZjAHJptiLmNI-188" value="#id-user INT" style="text;strokeColor=none;fillColor=none;align=left;verticalAlign=middle;spacingLeft=4;spacingRight=4;overflow=hidden;points=[[0,0.5],[1,0.5]];portConstraint=eastwest;rotatable=0;whiteSpace=wrap;html=1;" parent="1twqKFGYZjAHJptiLmNI-184" vertex="1">
          <mxGeometry y="120" width="140" height="30" as="geometry" />
        </mxCell>
        <mxCell id="1twqKFGYZjAHJptiLmNI-189" value="recherche" style="swimlane;fontStyle=0;childLayout=stackLayout;horizontal=1;startSize=30;horizontalStack=0;resizeParent=1;resizeParentMax=0;resizeLast=0;collapsible=1;marginBottom=0;whiteSpace=wrap;html=1;" parent="1" vertex="1">
          <mxGeometry x="480" y="2759.9700000000003" width="140" height="150" as="geometry" />
        </mxCell>
        <mxCell id="1twqKFGYZjAHJptiLmNI-190" value="&lt;span style=&quot;color: rgb(240, 240, 240); font-family: Helvetica; font-size: 12px; font-style: normal; font-variant-ligatures: normal; font-variant-caps: normal; font-weight: 400; letter-spacing: normal; orphans: 2; text-align: left; text-indent: 0px; text-transform: none; widows: 2; word-spacing: 0px; -webkit-text-stroke-width: 0px; background-color: rgb(27, 29, 30); text-decoration-thickness: initial; text-decoration-style: initial; text-decoration-color: initial; float: none; display: inline !important;&quot;&gt;&lt;u&gt;id-recherche INT AUTO-INCREMENT&lt;/u&gt;&lt;/span&gt;" style="text;whiteSpace=wrap;html=1;" parent="1twqKFGYZjAHJptiLmNI-189" vertex="1">
          <mxGeometry y="30" width="140" height="30" as="geometry" />
        </mxCell>
        <mxCell id="1twqKFGYZjAHJptiLmNI-191" value="#id-user INT" style="text;strokeColor=none;fillColor=none;align=left;verticalAlign=middle;spacingLeft=4;spacingRight=4;overflow=hidden;points=[[0,0.5],[1,0.5]];portConstraint=eastwest;rotatable=0;whiteSpace=wrap;html=1;" parent="1twqKFGYZjAHJptiLmNI-189" vertex="1">
          <mxGeometry y="60" width="140" height="30" as="geometry" />
        </mxCell>
        <mxCell id="1twqKFGYZjAHJptiLmNI-192" value="#id-profil INT" style="text;strokeColor=none;fillColor=none;align=left;verticalAlign=middle;spacingLeft=4;spacingRight=4;overflow=hidden;points=[[0,0.5],[1,0.5]];portConstraint=eastwest;rotatable=0;whiteSpace=wrap;html=1;" parent="1twqKFGYZjAHJptiLmNI-189" vertex="1">
          <mxGeometry y="90" width="140" height="30" as="geometry" />
        </mxCell>
        <mxCell id="1twqKFGYZjAHJptiLmNI-203" value="date-recherche DATETIME" style="text;strokeColor=none;fillColor=none;align=left;verticalAlign=middle;spacingLeft=4;spacingRight=4;overflow=hidden;points=[[0,0.5],[1,0.5]];portConstraint=eastwest;rotatable=0;whiteSpace=wrap;html=1;" parent="1twqKFGYZjAHJptiLmNI-189" vertex="1">
          <mxGeometry y="120" width="140" height="30" as="geometry" />
        </mxCell>
        <mxCell id="1twqKFGYZjAHJptiLmNI-193" value="" style="edgeStyle=orthogonalEdgeStyle;rounded=0;orthogonalLoop=1;jettySize=auto;html=1;endArrow=block;endFill=1;" parent="1" source="1twqKFGYZjAHJptiLmNI-194" target="1twqKFGYZjAHJptiLmNI-166" edge="1">
          <mxGeometry relative="1" as="geometry">
            <Array as="points">
              <mxPoint x="110" y="2994.9700000000003" />
            </Array>
            <mxPoint x="227" y="3059.9700000000003" as="sourcePoint" />
            <mxPoint x="160" y="2849.9700000000003" as="targetPoint" />
          </mxGeometry>
        </mxCell>
        <mxCell id="1twqKFGYZjAHJptiLmNI-194" value="message_prive" style="swimlane;fontStyle=0;childLayout=stackLayout;horizontal=1;startSize=30;horizontalStack=0;resizeParent=1;resizeParentMax=0;resizeLast=0;collapsible=1;marginBottom=0;whiteSpace=wrap;html=1;" parent="1" vertex="1">
          <mxGeometry x="40" y="2519.9700000000003" width="140" height="150" as="geometry" />
        </mxCell>
        <mxCell id="1twqKFGYZjAHJptiLmNI-195" value="&lt;span style=&quot;color: rgb(240, 240, 240); font-family: Helvetica; font-size: 12px; font-style: normal; font-variant-ligatures: normal; font-variant-caps: normal; font-weight: 400; letter-spacing: normal; orphans: 2; text-align: left; text-indent: 0px; text-transform: none; widows: 2; word-spacing: 0px; -webkit-text-stroke-width: 0px; background-color: rgb(27, 29, 30); text-decoration-thickness: initial; text-decoration-style: initial; text-decoration-color: initial; float: none; display: inline !important;&quot;&gt;&lt;u&gt;id-pmessage INT AUTO-INCREMENT&lt;/u&gt;&lt;/span&gt;" style="text;whiteSpace=wrap;html=1;" parent="1twqKFGYZjAHJptiLmNI-194" vertex="1">
          <mxGeometry y="30" width="140" height="30" as="geometry" />
        </mxCell>
        <mxCell id="1twqKFGYZjAHJptiLmNI-196" value="#id-user INT" style="text;strokeColor=none;fillColor=none;align=left;verticalAlign=middle;spacingLeft=4;spacingRight=4;overflow=hidden;points=[[0,0.5],[1,0.5]];portConstraint=eastwest;rotatable=0;whiteSpace=wrap;html=1;" parent="1twqKFGYZjAHJptiLmNI-194" vertex="1">
          <mxGeometry y="60" width="140" height="30" as="geometry" />
        </mxCell>
        <mxCell id="1twqKFGYZjAHJptiLmNI-197" value="#id-profil INT" style="text;strokeColor=none;fillColor=none;align=left;verticalAlign=middle;spacingLeft=4;spacingRight=4;overflow=hidden;points=[[0,0.5],[1,0.5]];portConstraint=eastwest;rotatable=0;whiteSpace=wrap;html=1;" parent="1twqKFGYZjAHJptiLmNI-194" vertex="1">
          <mxGeometry y="90" width="140" height="30" as="geometry" />
        </mxCell>
        <mxCell id="1twqKFGYZjAHJptiLmNI-198" value="contenu VARCHAR1000 NOT NULL" style="text;strokeColor=none;fillColor=none;align=left;verticalAlign=middle;spacingLeft=4;spacingRight=4;overflow=hidden;points=[[0,0.5],[1,0.5]];portConstraint=eastwest;rotatable=0;whiteSpace=wrap;html=1;" parent="1twqKFGYZjAHJptiLmNI-194" vertex="1">
          <mxGeometry y="120" width="140" height="30" as="geometry" />
        </mxCell>
        <mxCell id="1twqKFGYZjAHJptiLmNI-199" value="&lt;font style=&quot;font-size: 100px;&quot;&gt;MPD&lt;/font&gt;" style="text;html=1;align=center;verticalAlign=middle;resizable=0;points=[];autosize=1;strokeColor=none;fillColor=none;fontSize=50;" parent="1" vertex="1">
          <mxGeometry x="777" y="2779.9700000000003" width="250" height="130" as="geometry" />
        </mxCell>
      </root>
    </mxGraphModel>
  </diagram>
</mxfile>
